<svg xmlns="http://www.w3.org/2000/svg" width="232" height="35" fill="none"><path fill="#A47B5B" d="M0 18.64C0 8.4 6.974 1.895 16.495 1.895c9.52 0 15.792 5.89 15.792 15.91S25.355 34.508 15.84 34.508 0 28.71 0 18.64m16.888 15.254c6.183 0 11.669-4.442 11.669-14.724S22.505 2.51 15.353 2.51C9.169 2.51 3.73 6.95 3.73 17.19c0 10.813 6.01 16.704 13.158 16.704m27.943-.614-1.273-8.791h.22c1.536 5.891 4.648 9.273 10.087 9.273 4.255 0 6.624-2.153 6.624-5.628s-2.458-6.065-8.73-8.528c-6.534-2.504-9.17-5.187-9.17-8.836 0-4.836 4.564-8.88 11.581-8.88 2.982 0 5.439.615 6.754 1.056L61.626 0h.22v9.587h-.22c-.833-4.526-3.51-7.12-8.336-7.12-4.825 0-7.587 2.33-7.587 6.111 0 3.472 2.41 5.98 8.51 8.354 6.051 2.331 8.902 5.056 8.902 8.922 0 4.395-3.684 8.659-10.92 8.659-3.38 0-6.404-.878-7.368-1.23zM72.99 3.653l-2.195-.877v-.22h8.95v.22l-3.071.877L87.51 29.498l4.736-12.087c4.695-11.914 3.862-13.584-.66-14.508l-.66-.131v-.22h9.564v.22l-2.195.877-12.24 30.859h-.043zm34.74 29.978 3.071-.877v-29.1l-3.071-.878v-.22h18.335l.44-2.552h.22l1.226 9.142h-.22l-.22-.614c-1.493-4.175-3.028-5.493-10.002-5.493h-3.333v13.758h3.946c3.511 0 4.915-1.45 5.397-4.396h.22v9.977h-.22c-.482-3.47-1.886-5.098-5.397-5.098h-3.946v16.088h3.511c8.336 0 10.704-2.021 12.502-6.815l.393-1.055h.22l-1.666 8.354H107.73zm37.814 0 3.815-.877V3.039h-1.274c-6.314 0-8.158 1.581-10.175 5.891l-.309.662h-.22L139.88.009h.22l.178 2.551h21.536l.178-2.551h.22l2.499 9.583h-.22l-.308-.662c-2.018-4.306-3.862-5.89-10.176-5.89h-1.273v29.714l3.815.877v.22h-11.01v-.22zm27.503-.001 3.07-.877v-29.1l-3.07-.877v-.22h9.52v.22l-3.07.877v29.1l3.07.877v.22h-9.52zm24.651-29.536-1.493 13.715c-1.404 13.012-.042 14.86 4.475 15.695l.702.131v.22h-10.265v-.22l2.851-.877 3.244-29.1-3.422-.878v-.22h6.801l11.36 27.032L223.223 2.56h6.098v.22l-3.244.878 3.071 29.1 2.851.877v.22h-9.301v-.22l3.071-.877-2.982-27.867L210.682 35h-.088L197.698 4.099z"/></svg>